# xmcd
#
# Track frame offsets:
#	150
#	14167
#	29487
#	43159
#	58724
#	72131
#	85355
#	97814
#	112067
#	126412
#
# Disc length: 1901 seconds
#
# Revision: 1
# Processed by: cddbd v1.5.2PL0 Copyright (c) Steve Scherf et al.
# Submitted via: audiograbber 1.83.01
#
DISCID=8f076b0a
DTITLE=Louis Armstrong - Celebrating The Best Of Jazz
DYEAR=2001
DGENRE=Jazz
TTITLE0=I Got Rhythm
TTITLE1=Ain't Misbehavin'
TTITLE2=St. Louis Blues
TTITLE3=Mahogany Hall Stomp
TTITLE4=Save It Pretty Mama
TTITLE5=Struttin' With Some Barbecue
TTITLE6=I Ain't Got Nobody
TTITLE7=Black and Blue
TTITLE8=That's My Home
TTITLE9=Stardust
EXTD=YEAR: 2001
EXTT0=
EXTT1=
EXTT2=
EXTT3=
EXTT4=
EXTT5=
EXTT6=
EXTT7=
EXTT8=
EXTT9=
PLAYORDER=
